<svg width="24" height="24" viewBox="0 0 24 24" fill="none" xmlns="http://www.w3.org/2000/svg">
<rect x="2.5" y="4.5" width="16" height="11" rx="0.5" fill="#F3F6F8" stroke="#90969D"/>
<path d="M21.5 8.5C22.0521 8.50025 22.5 8.94787 22.5 9.5V18.5049C22.4998 19.0552 22.0543 19.5024 21.5039 19.5049L18.5 19.5176V23C18.5 23.2021 18.378 23.3844 18.1914 23.4619C18.0047 23.5393 17.7895 23.4963 17.6465 23.3535L13.832 19.5391L7.50391 19.5684C6.95008 19.5708 6.50025 19.1222 6.5 18.5684V9.5C6.5 8.94772 6.94772 8.5 7.5 8.5H21.5Z" fill="#F3F6F8"/>
<path d="M21.5 8.5L21.5002 8H21.5V8.5ZM22.5 18.5049L23 18.5051V18.5049H22.5ZM21.5039 19.5049L21.506 20.0049H21.5062L21.5039 19.5049ZM18.5 19.5176L18.4979 19.0176C18.2226 19.0187 18 19.2423 18 19.5176H18.5ZM18.1914 23.4619L18.3827 23.9239L18.3832 23.9237L18.1914 23.4619ZM17.6465 23.3535L17.2929 23.7071L17.2932 23.7073L17.6465 23.3535ZM13.832 19.5391L14.1856 19.1855C14.0912 19.0912 13.9631 19.0385 13.8297 19.0391L13.832 19.5391ZM7.50391 19.5684L7.5061 20.0684L7.50622 20.0684L7.50391 19.5684ZM6.5 18.5684H6L6 18.5686L6.5 18.5684ZM21.5 8.5L21.4998 9C21.7761 9.00013 22 9.22424 22 9.5H22.5H23C23 8.6715 22.328 8.00038 21.5002 8L21.5 8.5ZM22.5 9.5H22V18.5049H22.5H23V9.5H22.5ZM22.5 18.5049L22 18.5047C21.9999 18.7797 21.777 19.0036 21.5016 19.0049L21.5039 19.5049L21.5062 20.0049C22.3316 20.0011 22.9997 19.3307 23 18.5051L22.5 18.5049ZM21.5039 19.5049L21.5018 19.0049L18.4979 19.0176L18.5 19.5176L18.5021 20.0176L21.506 20.0049L21.5039 19.5049ZM18.5 19.5176H18V23H18.5H19V19.5176H18.5ZM18.5 23H18L17.9996 23.0002L18.1914 23.4619L18.3832 23.9237C18.7559 23.7689 19 23.4046 19 23H18.5ZM18.1914 23.4619L18.0001 23L17.9998 22.9997L17.6465 23.3535L17.2932 23.7073C17.5789 23.9926 18.0089 24.0787 18.3827 23.9239L18.1914 23.4619ZM17.6465 23.3535L18 23L14.1856 19.1855L13.832 19.5391L13.4785 19.8926L17.2929 23.7071L17.6465 23.3535ZM13.832 19.5391L13.8297 19.0391L7.50159 19.0684L7.50391 19.5684L7.50622 20.0684L13.8343 20.0391L13.832 19.5391ZM7.50391 19.5684L7.50172 19.0684C7.22542 19.0696 7.00012 18.8456 7 18.5681L6.5 18.5684L6 18.5686C6.00037 19.3987 6.67474 20.072 7.5061 20.0684L7.50391 19.5684ZM6.5 18.5684H7V9.5H6.5H6V18.5684H6.5ZM6.5 9.5H7C7 9.22386 7.22386 9 7.5 9V8.5V8C6.67157 8 6 8.67157 6 9.5H6.5ZM7.5 8.5V9H21.5V8.5V8H7.5V8.5Z" fill="#90969D"/>
<rect x="9" y="12" width="10" height="1" fill="#90969D"/>
<rect x="9" y="15" width="8" height="1" fill="#90969D"/>
</svg>
