<svg width="24" height="24" viewBox="0 0 24 24" fill="none" xmlns="http://www.w3.org/2000/svg">
<rect x="2.5" y="6.5" width="20" height="13" fill="#F3F6F8" stroke="#90969D"/>
<rect x="17" y="10" width="3" height="1" fill="#90969D"/>
<rect x="16" y="11" width="1" height="3" fill="#90969D"/>
<rect x="17" y="14" width="3" height="1" fill="#90969D"/>
<rect x="10" y="11" width="1" height="3" fill="#90969D"/>
<rect x="14" y="11" width="1" height="3" fill="#90969D"/>
<rect x="11" y="14" width="3" height="1" fill="#90969D"/>
<rect x="11" y="10" width="3" height="1" fill="#90969D"/>
<rect x="6" y="14" width="2" height="1" fill="#90969D"/>
<rect x="5" y="10" width="1" height="4" fill="#90969D"/>
<rect x="8" y="10" width="1" height="4" fill="#90969D"/>
<rect x="2" y="3" width="21" height="1" fill="#90969D"/>
<rect width="1" height="2" transform="matrix(1 0 0 -1 2 6)" fill="#90969D"/>
<rect width="1" height="2" transform="matrix(1 0 0 -1 22 6)" fill="#90969D"/>
</svg>
