<svg width="70" height="70" viewBox="0 0 70 70" fill="none" xmlns="http://www.w3.org/2000/svg">
<rect width="70" height="70" fill="white"/>
<rect x="61" y="11" width="49" height="49" rx="2" transform="rotate(90 61 11)" fill="#DFE2EE"/>
<rect x="17" y="16" width="39" height="15" rx="1" fill="white"/>
<rect x="20" y="19" width="13" height="3" rx="1.5" fill="#0077C8"/>
<rect x="20" y="25" width="20" height="3" rx="1.5" fill="#0077C8"/>
<rect x="17" y="35" width="39" height="20" rx="1" fill="white"/>
<rect x="21" y="45" width="3" height="7" rx="1.5" fill="#005087"/>
<rect x="27" y="47" width="3" height="5" rx="1.5" fill="#005087"/>
<rect x="33" y="42" width="3" height="10" rx="1.5" fill="#0077C8"/>
<rect x="47" y="42" width="3" height="10" rx="1.5" fill="#DFE2EE"/>
<rect x="40" y="39" width="3" height="13" rx="1.5" fill="#DFE2EE"/>
<rect x="54" y="40" width="9" height="8" rx="0.9" fill="#3392D3"/>
<rect x="54" y="49" width="9" height="2" rx="1" fill="#005087"/>
<rect x="54" y="52" width="9" height="2" rx="1" fill="#005087"/>
<circle cx="58.5" cy="33.5" r="10.5" fill="#3392D3"/>
<rect x="57" y="28" width="3" height="8" rx="1.5" fill="white"/>
<rect x="57" y="38" width="3" height="3" rx="1.5" fill="white"/>
<path d="M28.001 45.2537L26.3331 43.0488H29.6689L28.001 45.2537Z" fill="#767D84" stroke="#565E66" stroke-width="0.9"/>
<path d="M28.0801 43.732L28.0801 39" stroke="#565E66" stroke-width="1.8" stroke-linecap="round"/>
</svg>
