<svg width="70" height="70" viewBox="0 0 70 70" fill="none" xmlns="http://www.w3.org/2000/svg">
<rect width="70" height="70" fill="white"/>
<rect x="5" y="15" width="59" height="44" rx="2" fill="#DFE2EE"/>
<g filter="url(#filter0_d_11311_8146)">
<path d="M17.0996 13C17.5967 13 18 13.4033 18 13.9004V17.0996C18 17.5967 17.5967 18 17.0996 18H14.9004C14.4033 18 14 17.5967 14 17.0996V13.9004C14 13.4033 14.4033 13 14.9004 13H17.0996Z" fill="#0064A7"/>
</g>
<g filter="url(#filter1_d_11311_8146)">
<path d="M26.0996 13C26.5967 13 27 13.4033 27 13.9004V17.0996C27 17.5967 26.5967 18 26.0996 18H23.9004C23.4033 18 23 17.5967 23 17.0996V13.9004C23 13.4033 23.4033 13 23.9004 13H26.0996Z" fill="#0064A7"/>
</g>
<g filter="url(#filter2_d_11311_8146)">
<path d="M35.0996 13C35.5967 13 36 13.4033 36 13.9004V17.0996C36 17.5967 35.5967 18 35.0996 18H32.9004C32.4033 18 32 17.5967 32 17.0996V13.9004C32 13.4033 32.4033 13 32.9004 13H35.0996Z" fill="#0064A7"/>
</g>
<g filter="url(#filter3_d_11311_8146)">
<path d="M44.0996 13C44.5967 13 45 13.4033 45 13.9004V17.0996C45 17.5967 44.5967 18 44.0996 18H41.9004C41.4033 18 41 17.5967 41 17.0996V13.9004C41 13.4033 41.4033 13 41.9004 13H44.0996Z" fill="#0064A7"/>
</g>
<g filter="url(#filter4_d_11311_8146)">
<path d="M53.0996 13C53.5967 13 54 13.4033 54 13.9004V17.0996C54 17.5967 53.5967 18 53.0996 18H50.9004C50.4033 18 50 17.5967 50 17.0996V13.9004C50 13.4033 50.4033 13 50.9004 13H53.0996Z" fill="#0064A7"/>
</g>
<rect x="10" y="22" width="49" height="14" rx="1" fill="white"/>
<rect x="16" y="28" width="3" height="6" rx="1.5" fill="#DFE2EE"/>
<rect x="23" y="24" width="3" height="10" rx="1.5" fill="#DFE2EE"/>
<rect x="30" y="26" width="3" height="8" rx="1.5" fill="#0077C8"/>
<rect x="37" y="26" width="3" height="8" rx="1.5" fill="#0077C8"/>
<rect x="44" y="26" width="3" height="8" rx="1.5" fill="#005087"/>
<rect x="51" y="27" width="3" height="7" rx="1.5" fill="#DFE2EE"/>
<rect x="10" y="40" width="15" height="15" rx="1" fill="white"/>
<rect x="29" y="40" width="30" height="15" rx="1" fill="white"/>
<path d="M37.5 42C40.5376 42 43 44.4624 43 47.5C43 50.5376 40.5376 53 37.5 53C34.4624 53 32 50.5376 32 47.5C32 44.4624 34.4624 42 37.5 42ZM37.499 46.002C36.6706 46.002 35.999 46.6735 35.999 47.502C35.999 48.3304 36.6706 49.002 37.499 49.002C38.3275 49.002 38.999 48.3304 38.999 47.502C38.999 46.6735 38.3275 46.002 37.499 46.002Z" fill="#005087"/>
<path d="M37.4932 46.002C36.6674 46.0051 35.999 46.6755 35.999 47.502C35.999 48.3304 36.6706 49.002 37.499 49.002C38.3275 49.002 38.999 48.3304 38.999 47.502C38.999 47.3257 38.967 47.1571 38.9111 47H42.9766C42.9914 47.1647 43 47.3314 43 47.5C43 50.5378 40.5375 53.0009 37.5 53.001C34.4625 53.001 32 50.5378 32 47.5C32.0002 44.4646 34.4589 42.0047 37.4932 42.001V46.002Z" fill="#3392D3"/>
<path d="M47.2409 42.8243C47.1961 42.66 47.2427 42.4843 47.3632 42.3639C47.4836 42.2435 47.6593 42.1968 47.8236 42.2416L49.2748 42.6374C49.9415 42.8192 50.1631 43.6535 49.6744 44.1421L49.1414 44.6752C48.6527 45.1638 47.8185 44.9423 47.6367 44.2756L47.2409 42.8243Z" fill="#005087"/>
<path d="M47.6777 44.7744L48.7263 43.7258L49.7749 42.6772L53.4914 43.9416C54.1225 44.1563 54.3093 44.9587 53.8379 45.43L50.4305 48.8374C49.9592 49.3088 49.1568 49.122 48.9421 48.4909L47.6777 44.7744Z" fill="#DFE2EE"/>
<rect width="6.97642" height="16.9427" rx="0.5" transform="matrix(0.707107 -0.707106 0.707107 0.707106 48.9902 48.9224)" fill="#3392D3"/>
<rect width="6.97642" height="2.98989" rx="0.5" transform="matrix(0.707107 -0.707106 0.707107 0.707106 59.9531 59.8853)" fill="#003D66"/>
<rect x="13" y="43" width="4" height="4" fill="#0077C8"/>
<rect x="13" y="48" width="4" height="4" fill="#0077C8"/>
<rect x="18" y="43" width="4" height="4" fill="#0077C8"/>
<rect x="18" y="48" width="4" height="4" fill="#005087"/>
<defs>
<filter id="filter0_d_11311_8146" x="12.2" y="11.2" width="7.6" height="8.6" filterUnits="userSpaceOnUse" color-interpolation-filters="sRGB">
<feFlood flood-opacity="0" result="BackgroundImageFix"/>
<feColorMatrix in="SourceAlpha" type="matrix" values="0 0 0 0 0 0 0 0 0 0 0 0 0 0 0 0 0 0 127 0" result="hardAlpha"/>
<feOffset/>
<feGaussianBlur stdDeviation="0.9"/>
<feComposite in2="hardAlpha" operator="out"/>
<feColorMatrix type="matrix" values="0 0 0 0 0.156863 0 0 0 0 0.188235 0 0 0 0 0.215686 0 0 0 0.12 0"/>
<feBlend mode="normal" in2="BackgroundImageFix" result="effect1_dropShadow_11311_8146"/>
<feBlend mode="normal" in="SourceGraphic" in2="effect1_dropShadow_11311_8146" result="shape"/>
</filter>
<filter id="filter1_d_11311_8146" x="21.2" y="11.2" width="7.6" height="8.6" filterUnits="userSpaceOnUse" color-interpolation-filters="sRGB">
<feFlood flood-opacity="0" result="BackgroundImageFix"/>
<feColorMatrix in="SourceAlpha" type="matrix" values="0 0 0 0 0 0 0 0 0 0 0 0 0 0 0 0 0 0 127 0" result="hardAlpha"/>
<feOffset/>
<feGaussianBlur stdDeviation="0.9"/>
<feComposite in2="hardAlpha" operator="out"/>
<feColorMatrix type="matrix" values="0 0 0 0 0.156863 0 0 0 0 0.188235 0 0 0 0 0.215686 0 0 0 0.12 0"/>
<feBlend mode="normal" in2="BackgroundImageFix" result="effect1_dropShadow_11311_8146"/>
<feBlend mode="normal" in="SourceGraphic" in2="effect1_dropShadow_11311_8146" result="shape"/>
</filter>
<filter id="filter2_d_11311_8146" x="30.2" y="11.2" width="7.6" height="8.6" filterUnits="userSpaceOnUse" color-interpolation-filters="sRGB">
<feFlood flood-opacity="0" result="BackgroundImageFix"/>
<feColorMatrix in="SourceAlpha" type="matrix" values="0 0 0 0 0 0 0 0 0 0 0 0 0 0 0 0 0 0 127 0" result="hardAlpha"/>
<feOffset/>
<feGaussianBlur stdDeviation="0.9"/>
<feComposite in2="hardAlpha" operator="out"/>
<feColorMatrix type="matrix" values="0 0 0 0 0.156863 0 0 0 0 0.188235 0 0 0 0 0.215686 0 0 0 0.12 0"/>
<feBlend mode="normal" in2="BackgroundImageFix" result="effect1_dropShadow_11311_8146"/>
<feBlend mode="normal" in="SourceGraphic" in2="effect1_dropShadow_11311_8146" result="shape"/>
</filter>
<filter id="filter3_d_11311_8146" x="39.2" y="11.2" width="7.6" height="8.6" filterUnits="userSpaceOnUse" color-interpolation-filters="sRGB">
<feFlood flood-opacity="0" result="BackgroundImageFix"/>
<feColorMatrix in="SourceAlpha" type="matrix" values="0 0 0 0 0 0 0 0 0 0 0 0 0 0 0 0 0 0 127 0" result="hardAlpha"/>
<feOffset/>
<feGaussianBlur stdDeviation="0.9"/>
<feComposite in2="hardAlpha" operator="out"/>
<feColorMatrix type="matrix" values="0 0 0 0 0.156863 0 0 0 0 0.188235 0 0 0 0 0.215686 0 0 0 0.12 0"/>
<feBlend mode="normal" in2="BackgroundImageFix" result="effect1_dropShadow_11311_8146"/>
<feBlend mode="normal" in="SourceGraphic" in2="effect1_dropShadow_11311_8146" result="shape"/>
</filter>
<filter id="filter4_d_11311_8146" x="48.2" y="11.2" width="7.6" height="8.6" filterUnits="userSpaceOnUse" color-interpolation-filters="sRGB">
<feFlood flood-opacity="0" result="BackgroundImageFix"/>
<feColorMatrix in="SourceAlpha" type="matrix" values="0 0 0 0 0 0 0 0 0 0 0 0 0 0 0 0 0 0 127 0" result="hardAlpha"/>
<feOffset/>
<feGaussianBlur stdDeviation="0.9"/>
<feComposite in2="hardAlpha" operator="out"/>
<feColorMatrix type="matrix" values="0 0 0 0 0.156863 0 0 0 0 0.188235 0 0 0 0 0.215686 0 0 0 0.12 0"/>
<feBlend mode="normal" in2="BackgroundImageFix" result="effect1_dropShadow_11311_8146"/>
<feBlend mode="normal" in="SourceGraphic" in2="effect1_dropShadow_11311_8146" result="shape"/>
</filter>
</defs>
</svg>
