<svg width="70" height="70" viewBox="0 0 70 70" fill="none" xmlns="http://www.w3.org/2000/svg">
<rect width="70" height="70" fill="white"/>
<rect x="21" y="12" width="43" height="50" rx="2" fill="#DFE2EE"/>
<rect x="32" y="17" width="19" height="3" rx="1.5" fill="#0064A7"/>
<rect x="26" y="17" width="3" height="3" rx="1.5" fill="#0064A7"/>
<rect x="26" y="24" width="33" height="33" rx="1" fill="white"/>
<rect x="29" y="30" width="26" height="3" rx="1.5" fill="#DFE2EE"/>
<rect x="29" y="36" width="22" height="3" rx="1.5" fill="#DFE2EE"/>
<rect x="29" y="42" width="22" height="3" rx="1.5" fill="#DFE2EE"/>
<rect x="29" y="48" width="26" height="3" rx="1.5" fill="#DFE2EE"/>
<g filter="url(#filter0_d_11311_8147)">
<rect x="6" y="31" width="35" height="20" rx="1" fill="#DFE2EE"/>
</g>
<rect x="9" y="34" width="28" height="14" rx="1" fill="white"/>
<rect x="12" y="40" width="3" height="6" rx="1.5" fill="#66ADDE"/>
<rect x="17" y="38" width="3" height="8" rx="1.5" fill="#0064A7"/>
<circle opacity="0.8" cx="30.5" cy="36.5" r="10.5" fill="white"/>
<rect x="36" y="44.8286" width="4" height="9" transform="rotate(-45 36 44.8286)" fill="#003D66"/>
<path d="M40.7714 51.0136C40.3454 50.5875 40.3454 49.8968 40.7714 49.4708L43.4713 46.7709C43.8973 46.3449 44.588 46.3449 45.014 46.7709L50.6066 52.3635C51.7782 53.5351 51.7782 55.4346 50.6066 56.6061C49.435 57.7777 47.5355 57.7777 46.364 56.6061L40.7714 51.0136Z" fill="#3392D3"/>
<path d="M30.5 24C37.4035 24 43 29.5965 43 36.5C43 43.4036 37.4035 49 30.5 49C23.5965 49 18 43.4036 18 36.5C18 29.5964 23.5965 24 30.5 24ZM30.498 27.9258C25.8038 27.9259 21.9982 31.7315 21.998 36.4258C21.998 41.1201 25.8037 44.9257 30.498 44.9258C35.1925 44.9258 38.998 41.1202 38.998 36.4258C38.9979 31.7315 35.1924 27.9258 30.498 27.9258Z" fill="#3392D3"/>
<defs>
<filter id="filter0_d_11311_8147" x="4.2" y="29.2" width="38.6" height="23.6" filterUnits="userSpaceOnUse" color-interpolation-filters="sRGB">
<feFlood flood-opacity="0" result="BackgroundImageFix"/>
<feColorMatrix in="SourceAlpha" type="matrix" values="0 0 0 0 0 0 0 0 0 0 0 0 0 0 0 0 0 0 127 0" result="hardAlpha"/>
<feOffset/>
<feGaussianBlur stdDeviation="0.9"/>
<feComposite in2="hardAlpha" operator="out"/>
<feColorMatrix type="matrix" values="0 0 0 0 0.156863 0 0 0 0 0.188235 0 0 0 0 0.215686 0 0 0 0.12 0"/>
<feBlend mode="normal" in2="BackgroundImageFix" result="effect1_dropShadow_11311_8147"/>
<feBlend mode="normal" in="SourceGraphic" in2="effect1_dropShadow_11311_8147" result="shape"/>
</filter>
</defs>
</svg>
