<svg width="70" height="70" viewBox="0 0 70 70" fill="none" xmlns="http://www.w3.org/2000/svg">
<rect width="70" height="70" fill="white"/>
<path d="M12 32C11.4477 32 11 31.5523 11 31L11 28.9996C11 28.4473 11.4477 27.9996 12 27.9996L15.9996 27.9996L15.9996 32L12 32Z" fill="#0077C8"/>
<path d="M25 15C25 14.4477 25.4477 14 26 14H28.0004C28.5527 14 29.0004 14.4477 29.0004 15V18.9996H25V15Z" fill="#0077C8"/>
<path d="M25 57H29.0004V60.9996C29.0004 61.5519 28.5527 61.9996 28.0004 61.9996H26C25.4477 61.9996 25 61.5519 25 60.9996V57Z" fill="#0077C8"/>
<path d="M33 15C33 14.4477 33.4477 14 34 14H36.0004C36.5527 14 37.0004 14.4477 37.0004 15V18.9996H33V15Z" fill="#0077C8"/>
<path d="M33 57H37.0004V60.9996C37.0004 61.5519 36.5527 61.9996 36.0004 61.9996H34C33.4477 61.9996 33 61.5519 33 60.9996V57Z" fill="#0077C8"/>
<path d="M41 15C41 14.4477 41.4477 14 42 14H44.0004C44.5527 14 45.0004 14.4477 45.0004 15V18.9996H41V15Z" fill="#0077C8"/>
<path d="M54 32L54 27.9996L57.9996 27.9996C58.5519 27.9996 58.9996 28.4473 58.9996 28.9996L58.9996 31C58.9996 31.5523 58.5519 32 57.9996 32L54 32Z" fill="#0077C8"/>
<path d="M54 40L54 35.9996L57.9996 35.9996C58.5519 35.9996 58.9996 36.4473 58.9996 36.9996L58.9996 39C58.9996 39.5523 58.5519 40 57.9996 40L54 40Z" fill="#0077C8"/>
<path d="M12 40C11.4477 40 11 39.5523 11 39L11 36.9996C11 36.4473 11.4477 35.9996 12 35.9996L15.9996 35.9996L15.9996 40L12 40Z" fill="#0077C8"/>
<path d="M12 48C11.4477 48 11 47.5523 11 47L11 44.9996C11 44.4473 11.4477 43.9996 12 43.9996L15.9996 43.9996L15.9996 48L12 48Z" fill="#0077C8"/>
<g filter="url(#filter0_d_11311_8148)">
<rect x="15" y="18" width="40" height="40" rx="2" fill="#DFE2EE"/>
</g>
<rect x="21" y="24" width="28" height="28" rx="1" fill="white"/>
<rect x="34" y="29" width="3" height="3" rx="1.5" fill="#DFE2EE"/>
<rect x="40" y="34" width="3" height="3" rx="1.5" fill="#DFE2EE"/>
<rect x="24" y="43" width="3" height="3" rx="1.5" fill="#DFE2EE"/>
<path d="M21 29H30.5C31.3284 29 32 29.6716 32 30.5C32 31.3284 31.3284 32 30.5 32H21V29Z" fill="#DFE2EE"/>
<path d="M21 34H36.5C37.3284 34 38 34.6716 38 35.5C38 36.3284 37.3284 37 36.5 37H21V34Z" fill="#DFE2EE"/>
<path d="M49 46L29.5 46C28.6716 46 28 45.3284 28 44.5C28 43.6716 28.6716 43 29.5 43L49 43L49 46Z" fill="#DFE2EE"/>
<path d="M53.4648 38C53.9761 38.0002 54.4051 38.3861 54.459 38.8945L54.7422 41.5674C55.0079 41.6638 55.2674 41.7737 55.5215 41.8926L57.6143 40.2012C58.012 39.8799 58.5886 39.9109 58.9502 40.2725L61.7275 43.0498C62.0891 43.4115 62.1193 43.988 61.7979 44.3857L60.1064 46.4766C60.2255 46.7309 60.335 46.9908 60.4316 47.2568L63.1055 47.541C63.614 47.595 64 48.0247 64 48.5361V52.4639C64 52.9752 63.614 53.404 63.1055 53.458L60.4316 53.7412C60.3351 54.0073 60.2255 54.2671 60.1064 54.5215L61.7988 56.6152C62.1201 57.0129 62.0899 57.5895 61.7285 57.9512L58.9502 60.7285C58.5887 61.09 58.013 61.1209 57.6152 60.7998L55.5205 59.1074C55.2668 59.2261 55.0075 59.3353 54.7422 59.4316L54.459 62.1055C54.405 62.6139 53.9761 62.9998 53.4648 63H49.5361C49.0248 62.9999 48.596 62.6139 48.542 62.1055L48.2578 59.4316C47.9918 59.335 47.7319 59.2255 47.4775 59.1064L45.3857 60.7979C44.988 61.1193 44.4115 61.0891 44.0498 60.7275L41.2725 57.9502C40.9108 57.5885 40.8807 57.012 41.2021 56.6143L42.8936 54.5205C42.7747 54.2664 42.6648 54.007 42.5684 53.7412L39.8945 53.458C39.386 53.404 39 52.9753 39 52.4639V48.5361C39 48.0247 39.3859 47.595 39.8945 47.541L42.5684 47.2568C42.6646 46.9919 42.7731 46.7328 42.8916 46.4795L41.2002 44.3867C40.8788 43.989 40.9091 43.4125 41.2705 43.0508L44.0488 40.2734C44.4104 39.9119 44.986 39.8809 45.3838 40.2021L47.4766 41.8926C47.7311 41.7734 47.9915 41.6641 48.2578 41.5674L48.542 38.8945C48.5959 38.386 49.0248 38.0001 49.5361 38H53.4648ZM51.5 45C48.4626 45.0002 46 47.4625 46 50.5C46.0001 53.5374 48.4626 55.9998 51.5 56C54.5375 56 56.9999 53.5375 57 50.5C57 47.4624 54.5376 45 51.5 45Z" fill="#3392D3"/>
<circle cx="51.5" cy="50.5" r="5" fill="white" stroke="#005087" stroke-width="3"/>
<defs>
<filter id="filter0_d_11311_8148" x="13.2" y="16.2" width="43.6" height="43.6" filterUnits="userSpaceOnUse" color-interpolation-filters="sRGB">
<feFlood flood-opacity="0" result="BackgroundImageFix"/>
<feColorMatrix in="SourceAlpha" type="matrix" values="0 0 0 0 0 0 0 0 0 0 0 0 0 0 0 0 0 0 127 0" result="hardAlpha"/>
<feOffset/>
<feGaussianBlur stdDeviation="0.9"/>
<feComposite in2="hardAlpha" operator="out"/>
<feColorMatrix type="matrix" values="0 0 0 0 0.156863 0 0 0 0 0.188235 0 0 0 0 0.215686 0 0 0 0.12 0"/>
<feBlend mode="normal" in2="BackgroundImageFix" result="effect1_dropShadow_11311_8148"/>
<feBlend mode="normal" in="SourceGraphic" in2="effect1_dropShadow_11311_8148" result="shape"/>
</filter>
</defs>
</svg>
