<svg width="70" height="70" viewBox="0 0 70 70" fill="none" xmlns="http://www.w3.org/2000/svg">
<g clip-path="url(#clip0_11311_8149)">
<rect width="70" height="70" fill="white"/>
<g filter="url(#filter0_d_11311_8149)">
<rect x="3" y="16" width="64" height="43" rx="1" fill="#DFE2EE"/>
</g>
<rect x="7" y="25" width="17" height="30" rx="1" fill="#3392D3"/>
<rect x="28" y="25" width="34" height="30" rx="1" fill="#F7F9FB"/>
<g filter="url(#filter1_d_11311_8149)">
<rect x="31" y="29" width="17" height="24" rx="1" fill="white"/>
</g>
<path d="M39.5 38C42.5376 38 45 40.4624 45 43.5C45 46.5376 42.5376 49 39.5 49C36.4624 49 34 46.5376 34 43.5C34 40.4624 36.4624 38 39.5 38ZM39.499 42.002C38.6706 42.002 37.999 42.6735 37.999 43.502C37.999 44.3304 38.6706 45.002 39.499 45.002C40.3275 45.002 40.999 44.3304 40.999 43.502C40.999 42.6735 40.3275 42.002 39.499 42.002Z" fill="#005087"/>
<path d="M39.4932 42.002C38.6674 42.0051 37.999 42.6755 37.999 43.502C37.999 44.3304 38.6706 45.002 39.499 45.002C40.3275 45.002 40.999 44.3304 40.999 43.502C40.999 43.3257 40.967 43.1571 40.9111 43H44.9766C44.9914 43.1647 45 43.3314 45 43.5C45 46.5378 42.5375 49.0009 39.5 49.001C36.4625 49.001 34 46.5378 34 43.5C34.0002 40.4646 36.4589 38.0047 39.4932 38.001V42.002Z" fill="#0077C8"/>
<g filter="url(#filter2_d_11311_8149)">
<rect x="51" y="29" width="19" height="24" rx="1" fill="#66ADDE"/>
</g>
<rect x="53" y="31" width="15" height="20" rx="1" fill="white"/>
<rect x="34" y="32" width="11" height="3" rx="1.5" fill="#0077C8"/>
<rect x="55" y="34" width="11" height="3" rx="1.5" fill="#DFE2EE"/>
<rect x="10" y="30" width="11" height="3" rx="1.5" fill="#005087"/>
<rect x="10" y="37" width="11" height="2" rx="1" fill="white"/>
<rect x="10" y="42" width="11" height="2" rx="1" fill="white"/>
<rect x="10" y="47" width="11" height="2" rx="1" fill="white"/>
<circle cx="60.5" cy="20.5" r="1.5" fill="#003D66"/>
<circle cx="55.5" cy="20.5" r="1.5" fill="#0064A7"/>
<circle cx="50.5" cy="20.5" r="1.5" fill="#0064A7"/>
<rect x="55" y="43" width="3" height="6" rx="1.5" fill="#0077C8"/>
<rect x="59" y="43" width="3" height="6" rx="1.5" fill="#0077C8"/>
<rect x="63" y="40" width="3" height="9" rx="1.5" fill="#0064A7"/>
</g>
<defs>
<filter id="filter0_d_11311_8149" x="1.2" y="14.2" width="67.6" height="46.6" filterUnits="userSpaceOnUse" color-interpolation-filters="sRGB">
<feFlood flood-opacity="0" result="BackgroundImageFix"/>
<feColorMatrix in="SourceAlpha" type="matrix" values="0 0 0 0 0 0 0 0 0 0 0 0 0 0 0 0 0 0 127 0" result="hardAlpha"/>
<feOffset/>
<feGaussianBlur stdDeviation="0.9"/>
<feComposite in2="hardAlpha" operator="out"/>
<feColorMatrix type="matrix" values="0 0 0 0 0.156863 0 0 0 0 0.188235 0 0 0 0 0.215686 0 0 0 0.12 0"/>
<feBlend mode="normal" in2="BackgroundImageFix" result="effect1_dropShadow_11311_8149"/>
<feBlend mode="normal" in="SourceGraphic" in2="effect1_dropShadow_11311_8149" result="shape"/>
</filter>
<filter id="filter1_d_11311_8149" x="29.2" y="27.2" width="20.6" height="27.6" filterUnits="userSpaceOnUse" color-interpolation-filters="sRGB">
<feFlood flood-opacity="0" result="BackgroundImageFix"/>
<feColorMatrix in="SourceAlpha" type="matrix" values="0 0 0 0 0 0 0 0 0 0 0 0 0 0 0 0 0 0 127 0" result="hardAlpha"/>
<feOffset/>
<feGaussianBlur stdDeviation="0.9"/>
<feComposite in2="hardAlpha" operator="out"/>
<feColorMatrix type="matrix" values="0 0 0 0 0.156863 0 0 0 0 0.188235 0 0 0 0 0.215686 0 0 0 0.12 0"/>
<feBlend mode="normal" in2="BackgroundImageFix" result="effect1_dropShadow_11311_8149"/>
<feBlend mode="normal" in="SourceGraphic" in2="effect1_dropShadow_11311_8149" result="shape"/>
</filter>
<filter id="filter2_d_11311_8149" x="49.2" y="27.2" width="22.6" height="27.6" filterUnits="userSpaceOnUse" color-interpolation-filters="sRGB">
<feFlood flood-opacity="0" result="BackgroundImageFix"/>
<feColorMatrix in="SourceAlpha" type="matrix" values="0 0 0 0 0 0 0 0 0 0 0 0 0 0 0 0 0 0 127 0" result="hardAlpha"/>
<feOffset/>
<feGaussianBlur stdDeviation="0.9"/>
<feComposite in2="hardAlpha" operator="out"/>
<feColorMatrix type="matrix" values="0 0 0 0 0.156863 0 0 0 0 0.188235 0 0 0 0 0.215686 0 0 0 0.12 0"/>
<feBlend mode="normal" in2="BackgroundImageFix" result="effect1_dropShadow_11311_8149"/>
<feBlend mode="normal" in="SourceGraphic" in2="effect1_dropShadow_11311_8149" result="shape"/>
</filter>
<clipPath id="clip0_11311_8149">
<rect width="70" height="70" fill="white"/>
</clipPath>
</defs>
</svg>
